<mxfile host="app.diagrams.net" modified="2024-02-19T09:38:20.470Z" agent="Mozilla/5.0 (Macintosh; Intel Mac OS X 10_15_7) AppleWebKit/537.36 (KHTML, like Gecko) Chrome/121.0.0.0 Safari/537.36" etag="bWef9tGN-BH0KnQjCCpC" version="23.1.5" type="github">
  <diagram name="第 1 页" id="tGpkFFXtIDUjHvHkY1-7">
    <mxGraphModel dx="1834" dy="1160" grid="0" gridSize="10" guides="1" tooltips="1" connect="1" arrows="1" fold="1" page="0" pageScale="1" pageWidth="827" pageHeight="1169" math="0" shadow="0">
      <root>
        <mxCell id="0" />
        <mxCell id="1" parent="0" />
        <mxCell id="HrvoyylgMfjcGuLzRNvA-10" value="" style="group" vertex="1" connectable="0" parent="1">
          <mxGeometry x="-201" y="-85" width="117" height="727" as="geometry" />
        </mxCell>
        <mxCell id="HrvoyylgMfjcGuLzRNvA-1" value="" style="rounded=1;whiteSpace=wrap;html=1;strokeColor=#1ccea2;strokeWidth=3;" vertex="1" parent="HrvoyylgMfjcGuLzRNvA-10">
          <mxGeometry width="117" height="59" as="geometry" />
        </mxCell>
        <mxCell id="HrvoyylgMfjcGuLzRNvA-7" value="" style="endArrow=none;html=1;rounded=0;fontSize=12;startSize=8;endSize=8;entryX=0.5;entryY=1;entryDx=0;entryDy=0;strokeWidth=4;strokeColor=#1970e1;" edge="1" parent="HrvoyylgMfjcGuLzRNvA-10" target="HrvoyylgMfjcGuLzRNvA-1">
          <mxGeometry width="50" height="50" relative="1" as="geometry">
            <mxPoint x="54" y="727" as="sourcePoint" />
            <mxPoint x="38" y="142" as="targetPoint" />
          </mxGeometry>
        </mxCell>
        <mxCell id="HrvoyylgMfjcGuLzRNvA-2" value="&lt;font style=&quot;font-size: 20px;&quot;&gt;Client&lt;/font&gt;" style="text;html=1;align=center;verticalAlign=middle;whiteSpace=wrap;rounded=0;fontSize=16;" vertex="1" parent="HrvoyylgMfjcGuLzRNvA-10">
          <mxGeometry x="27.30000000000001" y="14.75" width="58.5" height="29.5" as="geometry" />
        </mxCell>
        <mxCell id="HrvoyylgMfjcGuLzRNvA-11" value="" style="group" vertex="1" connectable="0" parent="1">
          <mxGeometry x="288" y="-85" width="185" height="727" as="geometry" />
        </mxCell>
        <mxCell id="HrvoyylgMfjcGuLzRNvA-12" value="" style="rounded=1;whiteSpace=wrap;html=1;strokeColor=#1ccea2;strokeWidth=3;" vertex="1" parent="HrvoyylgMfjcGuLzRNvA-11">
          <mxGeometry width="117" height="59" as="geometry" />
        </mxCell>
        <mxCell id="HrvoyylgMfjcGuLzRNvA-13" value="" style="endArrow=none;html=1;rounded=0;fontSize=12;startSize=8;endSize=8;entryX=0.5;entryY=1;entryDx=0;entryDy=0;strokeWidth=4;strokeColor=#1970e1;" edge="1" parent="HrvoyylgMfjcGuLzRNvA-11" target="HrvoyylgMfjcGuLzRNvA-12">
          <mxGeometry width="50" height="50" relative="1" as="geometry">
            <mxPoint x="54" y="727" as="sourcePoint" />
            <mxPoint x="38" y="142" as="targetPoint" />
          </mxGeometry>
        </mxCell>
        <mxCell id="HrvoyylgMfjcGuLzRNvA-14" value="&lt;font style=&quot;font-size: 20px;&quot;&gt;Server&lt;/font&gt;" style="text;html=1;align=center;verticalAlign=middle;whiteSpace=wrap;rounded=0;fontSize=16;" vertex="1" parent="HrvoyylgMfjcGuLzRNvA-11">
          <mxGeometry x="27.30000000000001" y="14.75" width="58.5" height="29.5" as="geometry" />
        </mxCell>
        <mxCell id="HrvoyylgMfjcGuLzRNvA-19" value="&lt;font style=&quot;font-size: 20px;&quot;&gt;New Mesasge?&lt;/font&gt;" style="text;html=1;align=center;verticalAlign=middle;whiteSpace=wrap;rounded=0;fontSize=16;" vertex="1" parent="1">
          <mxGeometry x="-332" y="-6" width="198" height="39" as="geometry" />
        </mxCell>
        <mxCell id="HrvoyylgMfjcGuLzRNvA-20" value="" style="endArrow=classic;html=1;rounded=0;fontSize=12;startSize=8;endSize=8;strokeWidth=3;" edge="1" parent="1">
          <mxGeometry width="50" height="50" relative="1" as="geometry">
            <mxPoint x="-145" y="11" as="sourcePoint" />
            <mxPoint x="343" y="17" as="targetPoint" />
          </mxGeometry>
        </mxCell>
        <mxCell id="HrvoyylgMfjcGuLzRNvA-21" value="" style="endArrow=classic;html=1;rounded=0;fontSize=12;startSize=8;endSize=8;strokeWidth=3;strokeColor=#FF3333;" edge="1" parent="1">
          <mxGeometry width="50" height="50" relative="1" as="geometry">
            <mxPoint x="343" y="55" as="sourcePoint" />
            <mxPoint x="-147" y="51" as="targetPoint" />
          </mxGeometry>
        </mxCell>
        <mxCell id="HrvoyylgMfjcGuLzRNvA-22" value="" style="endArrow=none;dashed=1;html=1;rounded=0;fontSize=12;startSize=8;endSize=8;" edge="1" parent="1">
          <mxGeometry width="50" height="50" relative="1" as="geometry">
            <mxPoint x="-141" y="102" as="sourcePoint" />
            <mxPoint x="340" y="109" as="targetPoint" />
          </mxGeometry>
        </mxCell>
        <mxCell id="HrvoyylgMfjcGuLzRNvA-23" value="&lt;font style=&quot;font-size: 20px;&quot;&gt;connection closed&lt;br&gt;&lt;/font&gt;" style="edgeLabel;html=1;align=center;verticalAlign=middle;resizable=0;points=[];fontSize=12;" vertex="1" connectable="0" parent="HrvoyylgMfjcGuLzRNvA-22">
          <mxGeometry x="0.0187" relative="1" as="geometry">
            <mxPoint as="offset" />
          </mxGeometry>
        </mxCell>
        <mxCell id="HrvoyylgMfjcGuLzRNvA-24" value="&lt;font style=&quot;font-size: 20px;&quot;&gt;No&lt;/font&gt;" style="text;html=1;align=center;verticalAlign=middle;whiteSpace=wrap;rounded=0;fontSize=16;" vertex="1" parent="1">
          <mxGeometry x="453" y="48" width="198" height="39" as="geometry" />
        </mxCell>
      </root>
    </mxGraphModel>
  </diagram>
</mxfile>
